<?xml version="1.0" standalone="no"?>
<!DOCTYPE svg PUBLIC "-//W3C//DTD SVG 20010904//EN"
 "http://www.w3.org/TR/2001/REC-SVG-20010904/DTD/svg10.dtd">
<svg version="1.0" xmlns="http://www.w3.org/2000/svg"
 width="1080.000000pt" height="1080.000000pt" viewBox="0 0 1080.000000 1080.000000"
 preserveAspectRatio="xMidYMid meet">
<metadata>
Created by potrace 1.14, written by Peter Selinger 2001-2017
</metadata>
<g transform="translate(0.000000,1080.000000) scale(0.100000,-0.100000)"
fill="#000000" stroke="none">
<path d="M2015 10793 c-331 -41 -529 -96 -780 -218 -520 -252 -922 -706 -1114
-1258 -54 -155 -93 -325 -109 -482 -9 -88 -9 -6788 0 -6870 39 -360 171 -712
381 -1018 301 -440 788 -770 1317 -891 250 -58 54 -55 3725 -52 1865 1 3408 5
3430 10 22 4 76 14 120 22 44 9 91 18 105 20 167 32 482 157 628 250 29 19 55
34 57 34 3 0 38 23 77 52 195 138 369 305 501 479 131 175 235 365 312 574 37
98 87 282 99 360 13 80 16 101 23 130 12 47 13 6785 2 6890 -94 861 -670 1582
-1489 1860 -80 27 -245 71 -302 80 -211 34 -187 34 -3603 33 -1842 -1 -3363
-3 -3380 -5z m6815 -155 c14 -3 50 -9 80 -12 71 -8 203 -39 305 -72 637 -204
1120 -682 1334 -1321 21 -62 50 -172 57 -213 3 -14 9 -50 14 -80 5 -30 13 -80
17 -110 10 -72 10 -6774 0 -6864 -65 -584 -400 -1134 -895 -1468 -78 -53 -308
-178 -327 -178 -5 0 -23 -7 -38 -15 -55 -28 -274 -94 -382 -114 -60 -11 -128
-23 -150 -28 -22 -4 -1556 -8 -3410 -9 -3575 -3 -3440 -4 -3655 42 -711 151
-1277 649 -1515 1332 -32 93 -62 199 -71 252 -2 14 -9 45 -14 70 -5 25 -12 77
-17 115 -10 89 -11 6791 0 6865 4 30 10 75 13 100 10 80 71 304 110 401 20 52
61 142 90 200 300 601 919 1031 1589 1105 33 3 62 8 64 10 7 7 6775 -1 6801
-8z"/>
<path d="M4610 7572 c-85 -4 -172 -23 -297 -63 -145 -46 -195 -58 -278 -67
-72 -8 -493 -7 -585 1 -89 8 -293 9 -360 2 -120 -13 -222 -54 -308 -123 -110
-87 -261 -367 -286 -528 -4 -22 -11 -67 -17 -102 -25 -160 -30 -440 -9 -552 6
-36 32 -129 56 -208 87 -280 89 -292 109 -656 8 -144 25 -245 46 -272 15 -19
58 -140 73 -206 22 -98 39 -221 51 -378 3 -41 8 -95 10 -120 2 -25 7 -74 10
-110 30 -327 123 -556 255 -625 44 -23 123 -27 225 -9 224 37 295 17 570 -162
231 -150 294 -169 510 -151 120 10 157 15 315 43 80 14 163 27 185 30 22 3 49
7 60 9 32 7 176 18 225 18 44 0 159 -8 250 -18 25 -2 68 -7 95 -10 28 -3 59
-7 70 -9 11 -2 43 -6 70 -10 28 -4 73 -11 100 -16 28 -6 111 -21 185 -35 172
-31 180 -33 210 -40 14 -3 41 -8 60 -10 19 -3 49 -7 65 -10 178 -27 344 -26
480 5 52 11 223 89 247 112 7 8 27 24 43 36 92 70 206 202 330 383 81 119 178
208 338 314 150 98 211 155 247 229 33 69 59 192 69 331 10 136 35 227 101
370 182 392 254 585 278 750 15 103 7 285 -16 368 -53 189 -180 370 -365 520
-75 60 -121 74 -347 102 -243 30 -432 111 -554 239 -82 87 -134 165 -251 381
-84 156 -129 193 -285 229 -74 17 -311 15 -395 -3 -27 -6 -61 -13 -75 -15 -25
-4 -221 -44 -250 -51 -8 -2 -26 -6 -40 -9 -107 -25 -255 -39 -350 -32 -133 9
-118 6 -514 92 -72 16 -141 26 -211 30 -44 3 -84 6 -90 7 -5 1 -30 1 -55 -1z
m145 -137 c78 -7 154 -20 285 -49 298 -67 320 -70 485 -71 151 0 175 3 436 56
85 17 174 36 199 41 83 16 104 19 230 23 137 4 236 -13 287 -51 23 -18 72 -96
172 -278 41 -76 157 -230 208 -277 164 -151 346 -225 639 -259 197 -23 207
-26 313 -126 123 -116 218 -254 246 -359 5 -16 9 -32 10 -35 20 -69 27 -140
22 -225 -9 -170 -53 -310 -204 -650 -164 -368 -172 -394 -188 -617 -10 -149
-44 -245 -106 -306 -18 -18 -92 -71 -164 -119 -151 -100 -292 -235 -369 -353
-75 -115 -167 -230 -236 -293 -195 -181 -370 -222 -725 -171 -93 13 -113 16
-177 30 -37 7 -82 16 -100 19 -18 3 -55 10 -83 15 -27 5 -66 12 -85 15 -81 13
-98 16 -150 25 -30 5 -72 12 -92 14 -21 3 -53 7 -70 10 -18 3 -58 8 -88 10
-30 3 -82 8 -115 12 -148 16 -344 4 -520 -30 -11 -2 -40 -7 -65 -11 -69 -10
-93 -14 -120 -20 -14 -3 -45 -8 -70 -11 -25 -3 -52 -7 -60 -9 -8 -2 -58 -7
-110 -11 -213 -17 -229 -12 -530 182 -206 133 -342 168 -521 134 -86 -17 -157
-23 -184 -16 -34 9 -99 93 -125 163 -25 68 -56 203 -64 288 -4 33 -9 74 -11
90 -3 17 -7 64 -10 105 -8 113 -29 322 -40 385 -22 138 -57 259 -95 335 -25
49 -39 128 -45 249 -16 330 -27 398 -110 666 -57 188 -67 241 -68 365 0 177 5
254 28 407 9 58 43 173 69 229 33 71 129 218 164 251 83 77 212 115 392 116
65 0 312 -12 355 -18 50 -7 347 -7 395 -1 25 4 61 8 80 11 80 9 160 29 270 65
110 37 199 57 285 63 22 1 42 2 45 1 3 -1 41 -5 85 -9z"/>
</g>
</svg>
